<svg xmlns="http://www.w3.org/2000/svg" width="24" height="24" viewBox="0 0 24 24"><defs><style>.a{fill:#fff;opacity:0;}.b{fill:#0f182c;}</style></defs><g transform="translate(12425 8433)"><rect class="a" width="24" height="24" transform="translate(-12425 -8433)"/><g transform="translate(-12424.83 -8433)"><path class="b" d="M20.83,8.01,14.28,2.77a3.765,3.765,0,0,0-4.55-.01L3.18,8.01a3.917,3.917,0,0,0-1.31,3.43l1.26,7.54A3.716,3.716,0,0,0,6.7,22H17.3a3.773,3.773,0,0,0,3.58-3.03l1.26-7.54a4.018,4.018,0,0,0-1.31-3.42ZM12.75,18a.75.75,0,0,1-1.5,0V15a.75.75,0,0,1,1.5,0v3Z"/></g></g></svg>